<svg id="Layer_1" enable-background="new 0 0 512 512" viewBox="0 0 512 512" xmlns="http://www.w3.org/2000/svg"><path d="m122.87 358.96c3.08-11.5 1.5-23.51-4.45-33.81s-15.56-17.68-27.06-20.76-23.51-1.5-33.81 4.45c-10.31 5.95-17.68 15.56-20.76 27.06s-1.5 23.51 4.45 33.81 15.56 17.68 27.06 20.76c3.84 1.03 7.73 1.54 11.61 1.54 7.72 0 15.34-2.03 22.21-5.99 10.3-5.96 17.67-15.56 20.75-27.06zm-26.76 16.66c-15.55 8.98-35.5 3.63-44.48-11.92s-3.63-35.5 11.92-44.47c5.12-2.95 10.7-4.36 16.23-4.36 11.26 0 22.23 5.84 28.25 16.27 8.97 15.55 3.63 35.51-11.92 44.48zm352.19-21.03c-2.09-.17-4.11.75-5.35 2.45l-10.25 14.08-10.25-14.08c-1.23-1.69-3.26-2.62-5.35-2.45-27.31 2.26-48.7 25.5-48.7 52.91v18.08c-32.34 26.18-72.94 40.58-114.66 40.58-33.84 0-66.81-9.34-95.47-26.99l-10.91-18.89c-2.2-3.81-5.77-6.54-10.04-7.69-1.06-.28-2.12-.46-3.19-.53l-10-17.33c21.49-20.12 27.18-53.14 11.84-79.71-13.47-23.32-39.34-35.11-64.52-31.86.24-64.23 34.11-123.23 89.03-155.96 1.06.94 2.44 1.51 3.97 1.51h7.55c.44 12.15 10.45 21.9 22.71 21.9s22.27-9.75 22.71-21.9h9.96c.44 12.15 10.45 21.9 22.71 21.9s22.27-9.75 22.71-21.9h18.33 5.4c.44 12.15 10.45 21.9 22.71 21.9s22.27-9.75 22.71-21.9h5.4c.61 0 1.19-.09 1.75-.26 53.34 32.8 86.4 91.15 86.94 153.86-1.09-.11-2.19-.17-3.31-.17-18.3 0-33.19 14.89-33.19 33.19s14.89 33.19 33.19 33.19 33.19-14.89 33.19-33.19c0-12.78-7.26-23.88-17.87-29.43.01-.69.02-1.38.02-2.05 0-34.83-9.33-69-26.97-98.82-16.53-27.93-39.91-51.38-67.74-68.03v-14.27c0-9.88-7.15-18.1-16.54-19.82l-18.68-31.51c-1.08-1.83-3.04-2.95-5.16-2.95h-15.86v-27.45c0-3.31-2.69-6-6-6h-126.69c-3.31 0-6 2.69-6 6v93.49c-61.16 34.47-99 99.03-99 169.37 0 .68.01 1.36.02 2.04-4.11 1.36-8.14 3.16-12.03 5.4-30.95 17.87-41.59 57.59-23.72 88.54 11.99 20.77 33.82 32.4 56.24 32.4 6.26 0 12.57-.91 18.72-2.78l10 17.31c-2.35 4.78-2.35 10.62.5 15.57l26.79 46.41c3.06 5.3 8.63 8.26 14.34 8.26 2.8 0 5.64-.71 8.24-2.21l9.57-5.52c7.89-4.56 10.61-14.69 6.05-22.58l-4.37-7.56c26.07 12.5 54.71 19.04 83.95 19.04 44.59 0 87.97-15.43 122.48-43.47h114.79c3.31 0 6-2.69 6-6v-21.21c0-27.41-21.39-50.65-48.7-52.91zm-15.6-18.07c-11.68 0-21.19-9.51-21.19-21.19s9.51-21.19 21.19-21.19 21.19 9.51 21.19 21.19-9.51 21.19-21.19 21.19zm-237.99-197.92c-5.92 0-10.73-4.81-10.73-10.73s4.81-10.73 10.73-10.73 10.73 4.81 10.73 10.73-4.82 10.73-10.73 10.73zm55.37 0c-5.92 0-10.73-4.81-10.73-10.73s4.81-10.73 10.73-10.73 10.73 4.81 10.73 10.73-4.81 10.73-10.73 10.73zm19.78-21.89c-3.91-6.89-11.31-11.56-19.78-11.56s-15.87 4.67-19.78 11.56h-15.81c-3.91-6.89-11.31-11.56-19.78-11.56s-15.87 4.67-19.78 11.56h-4.49v-16.33h114.69v16.33zm49.36 21.89c-5.92 0-10.73-4.81-10.73-10.73s4.81-10.73 10.73-10.73 10.73 4.81 10.73 10.73-4.81 10.73-10.73 10.73zm22.11-35.86v13.96h-2.32c-3.91-6.89-11.31-11.56-19.78-11.56s-15.87 4.67-19.78 11.56h-2.32v-22.12h36.04c4.5 0 8.16 3.66 8.16 8.16zm-31.77-42.28 13.09 22.13h-25.52v-22.13zm-24.44-33.46v61.38h-114.69v-61.38zm-205.2 373.23c-18.27 0-36.06-9.47-45.83-26.4-7.05-12.22-8.93-26.45-5.28-40.08s12.39-25.02 24.61-32.07c25.22-14.56 57.59-5.89 72.15 19.33s5.89 57.59-19.33 72.15c-8.3 4.8-17.37 7.07-26.32 7.07zm32.32 3.33c.79-.45 1.55-.93 2.31-1.41l7.79 13.49-4.69 2.71-7.78-13.48c.79-.43 1.58-.86 2.37-1.31zm49.86 75.32-9.57 5.52c-2.16 1.25-4.94.5-6.19-1.66l-26.79-46.41c-1.25-2.17-.5-4.94 1.66-6.19l9.57-5.52c.71-.41 1.49-.61 2.26-.61 1.57 0 3.09.81 3.93 2.27l26.79 46.41c1.25 2.16.5 4.94-1.66 6.19zm322.9-56.2h-13.39v-20.04c0-3.31-2.69-6-6-6s-6 2.69-6 6v20.04h-53.83v-20.04c0-3.31-2.69-6-6-6s-6 2.69-6 6v20.04h-13.38v-15.18c0-20.1 14.88-37.31 34.42-40.55l13.03 17.89c1.13 1.55 2.93 2.47 4.85 2.47s3.72-.92 4.85-2.47l13.03-17.89c19.55 3.23 34.42 20.44 34.42 40.55zm-231.27-223.09c-46.46 0-84.26 37.8-84.26 84.26s37.8 84.26 84.26 84.26 84.26-37.8 84.26-84.26-37.8-84.26-84.26-84.26zm-6 40.47c-7.05-.29-13.92-1.09-20.42-2.35 5.36-13.05 12.77-21.82 20.42-24.89zm0 12.01v25.78h-28.48c.42-10.6 1.92-20.25 4.21-28.7 7.72 1.61 15.9 2.6 24.27 2.92zm0 37.78v25.78c-8.37.32-16.55 1.31-24.27 2.91-2.29-8.45-3.79-18.09-4.21-28.7h28.48zm0 37.79v27.24c-7.64-3.07-15.05-11.84-20.42-24.89 6.5-1.26 13.37-2.06 20.42-2.35zm12 0c7.05.29 13.92 1.09 20.42 2.35-5.36 13.05-12.77 21.82-20.42 24.89zm0-12.01v-25.78h28.48c-.42 10.6-1.92 20.25-4.21 28.69-7.72-1.6-15.9-2.58-24.27-2.91zm0-37.78v-25.78c8.37-.32 16.55-1.31 24.27-2.91 2.29 8.45 3.79 18.09 4.21 28.69zm0-37.79v-27.24c7.64 3.07 15.05 11.84 20.42 24.89-6.5 1.27-13.37 2.06-20.42 2.35zm23.24-22.26c7.27 3.23 13.91 7.61 19.68 12.94-3.37 1.53-6.98 2.89-10.81 4.07-2.5-6.42-5.48-12.14-8.87-17.01zm-67.35 17c-3.83-1.18-7.44-2.54-10.81-4.07 5.77-5.32 12.42-9.71 19.68-12.94-3.38 4.88-6.37 10.6-8.87 17.01zm-3.74 11.39c-2.6 9.6-4.21 20.29-4.63 31.66h-25.51c1.17-14.17 6.44-27.19 14.62-37.87 4.74 2.4 9.94 4.48 15.52 6.21zm-4.63 43.66c.42 11.37 2.04 22.06 4.63 31.66-5.58 1.73-10.78 3.81-15.52 6.2-8.19-10.68-13.45-23.7-14.63-37.87h25.52zm8.37 43.05c2.5 6.41 5.49 12.13 8.88 17-7.27-3.23-13.91-7.61-19.68-12.94 3.36-1.52 6.97-2.88 10.8-4.06zm76.23 0c3.83 1.18 7.44 2.54 10.81 4.07-5.77 5.32-12.42 9.71-19.68 12.94 3.38-4.88 6.36-10.6 8.87-17.01zm3.73-11.38c2.6-9.6 4.21-20.29 4.63-31.66h25.51c-1.17 14.17-6.44 27.19-14.62 37.87-4.74-2.41-9.94-4.49-15.52-6.21zm4.63-43.67c-.42-11.37-2.04-22.06-4.63-31.66 5.58-1.73 10.79-3.81 15.52-6.2 8.19 10.68 13.45 23.7 14.62 37.87h-25.51z"/></svg>