<?xml version="1.0" encoding="UTF-8"?>
<svg xmlns="http://www.w3.org/2000/svg" id="Line_Expand" data-name="Line Expand" viewBox="0 0 64 64" width="512" height="512"><path d="M60,1H52a3,3,0,0,0,0,6h5v5a3,3,0,0,0,6,0V4A3,3,0,0,0,60,1Zm1,11a1,1,0,0,1-2,0V6a1,1,0,0,0-1-1H52a1,1,0,0,1,0-2h8a1,1,0,0,1,1,1Z"/><path d="M4,15a3,3,0,0,0,3-3V7h5a3,3,0,0,0,0-6H4A3,3,0,0,0,1,4v8A3,3,0,0,0,4,15ZM3,4A1,1,0,0,1,4,3h8a1,1,0,0,1,0,2H6A1,1,0,0,0,5,6v6a1,1,0,0,1-2,0Z"/><path d="M60,49a3,3,0,0,0-3,3v5H52a3,3,0,0,0,0,6h8a3,3,0,0,0,3-3V52A3,3,0,0,0,60,49Zm1,11a1,1,0,0,1-1,1H52a1,1,0,0,1,0-2h6a1,1,0,0,0,1-1V52a1,1,0,0,1,2,0Z"/><path d="M12,57H7V52a3,3,0,0,0-6,0v8a3,3,0,0,0,3,3h8a3,3,0,0,0,0-6Zm0,4H4a1,1,0,0,1-1-1V52a1,1,0,0,1,2,0v6a1,1,0,0,0,1,1h6a1,1,0,0,1,0,2Z"/><path d="M60,23a7.986,7.986,0,0,0-11.642-7.114A22.919,22.919,0,0,0,33.945,9.091,8,8,0,0,0,18,10a9.189,9.189,0,0,0,.668,3.309A22.981,22.981,0,1,0,54.984,32.627C57.146,30.417,60,26.786,60,23Zm-2,0c0,4.065-4.359,8.26-6,9.7-1.642-1.433-6-5.62-6-9.695a6,6,0,0,1,12,0ZM26,4a6.006,6.006,0,0,1,6,6c0,4.065-4.359,8.26-6,9.7-1.642-1.433-6-5.62-6-9.695A6.006,6.006,0,0,1,26,4ZM19.558,15.153a25.814,25.814,0,0,0,5.827,6.636,1,1,0,0,0,1.23,0,24.7,24.7,0,0,0,1.854-1.646l2.09.7-1.8,3.355a1,1,0,0,0,.117,1.116L31.733,28.7v2.887l-2.262,2.262-3.142-.629a1,1,0,0,0-.438.011l-5.4,1.351-5.232-3.924-2.36-7.323A21.046,21.046,0,0,1,19.558,15.153Zm7.135,37.141a21.052,21.052,0,0,1-14.4-13.12l3.13-.266,2.6,3.25a1,1,0,0,0,.671.369l6.207.69,3.744,4.368ZM32,53a20.942,20.942,0,0,1-3.315-.288l2.039-4.93a1,1,0,0,0-.165-1.033l-4.4-5.133a1,1,0,0,0-.649-.343l-6.188-.688-2.675-3.343a1,1,0,0,0-.865-.372l-4.1.348a20.374,20.374,0,0,1,.1-10.818l1.667,5.173a1,1,0,0,0,.352.494l5.867,4.4a1,1,0,0,0,.842.171l5.649-1.412,3.446.689a1,1,0,0,0,.9-.274l2.933-2.933A1,1,0,0,0,33.733,32V28.333a1,1,0,0,0-.235-.644l-2.653-3.148,2.037-3.8a1,1,0,0,0-.566-1.421l-2.329-.777c1.722-1.96,3.535-4.611,3.933-7.425a20.859,20.859,0,0,1,10.057,3.658l-2.747.873a1,1,0,0,0-.564.455l-2.527,4.4a1,1,0,0,0,.119,1.163l2.748,3.089-2.5,3.758a1,1,0,0,0,.207,1.336l3.208,2.567-.433,2.595-2.512-1a1,1,0,0,0-1.153.3l-2.933,3.668a1,1,0,0,0-.077,1.139l1.918,3.2L35.034,45.7a1,1,0,0,0,.6,1.4l3.632,1.1.969,3.109A20.883,20.883,0,0,1,32,53Zm10.057-2.572L41.022,47.1a1,1,0,0,0-.664-.66l-3-.912,1.408-2.817a1,1,0,0,0-.037-.962l-1.842-3.07,2.035-2.545L41.9,37.328a1,1,0,0,0,1.358-.764l.734-4.4a1,1,0,0,0-.362-.945l-2.951-2.36L43.1,25.221A1,1,0,0,0,43.014,24l-2.782-3.128,1.975-3.438,3.661-1.164c.28.247.541.514.806.776A7.97,7.97,0,0,0,44,23c0,5.961,7.084,11.553,7.385,11.789a1,1,0,0,0,1.23,0l.2-.161A21.025,21.025,0,0,1,42.057,50.428Z"/><path d="M52,27a4,4,0,1,0-4-4A4,4,0,0,0,52,27Zm0-6a2,2,0,1,1-2,2A2,2,0,0,1,52,21Z"/><path d="M30,10a4,4,0,1,0-4,4A4,4,0,0,0,30,10Zm-6,0a2,2,0,1,1,2,2A2,2,0,0,1,24,10Z"/></svg>
