<svg height="480pt" viewBox="0 0 480 480" width="480pt" xmlns="http://www.w3.org/2000/svg"><path d="m64 32h16v16h-16zm0 0"/><path d="m96 32h16v16h-16zm0 0"/><path d="m128 32h16v16h-16zm0 0"/><path d="m288 288h-72v-24c0-13.253906-10.746094-24-24-24s-24 10.746094-24 24v24h-72c-13.226562.066406-23.933594 10.773438-24 24 .050781 10.710938 7.1875 20.089844 17.496094 22.992188l16.65625 66.695312c4.425781 17.828125 20.441406 30.335938 38.808594 30.3125h94.078124c18.363282.003906 34.371094-12.496094 38.816407-30.3125l16.640625-66.679688c3.9375-1.039062 7.527344-3.109374 10.398437-6 4.589844-4.464843 7.15625-10.605468 7.105469-17.007812 0-13.253906-10.746094-24-24-24zm0 16c4.417969 0 8 3.582031 8 8 .003906 2.15625-.882812 4.214844-2.449219 5.695312-1.457031 1.492188-3.464843 2.324219-5.550781 2.304688h-72v-16zm-104-40c0-4.417969 3.582031-8 8-8s8 3.582031 8 8v64c0 4.417969-3.582031 8-8 8s-8-3.582031-8-8zm-93.550781 42.304688c1.457031-1.492188 3.464843-2.324219 5.550781-2.304688h72v16h-72c-4.417969 0-8-3.582031-8-8-.007812-2.15625.878906-4.21875 2.449219-5.695312zm171.886719 91.503906c-2.667969 10.691406-12.273438 18.195312-23.296876 18.191406h-94.078124c-11.015626 0-20.621094-7.496094-23.289063-18.183594l-15.433594-61.816406h63.203125c3.335938 9.585938 12.375 16.007812 22.527344 16.007812 10.148438 0 19.1875-6.421874 22.527344-16.007812h63.199218zm0 0"/><path d="m192 360c-4.417969 0-8 3.582031-8 8v32c0 4.417969 3.582031 8 8 8s8-3.582031 8-8v-32c0-4.417969-3.582031-8-8-8zm0 0"/><path d="m151.761719 366.054688c-.679688-2.789063-2.800781-5.003907-5.5625-5.796876-2.757813-.796874-5.730469-.050781-7.789063 1.953126-2.058594 2-2.886718 4.953124-2.171875 7.734374l8 32c.894531 3.558594 4.09375 6.054688 7.761719 6.054688.65625.003906 1.3125-.078125 1.953125-.238281 4.285156-1.074219 6.886719-5.421875 5.816406-9.707031zm0 0"/><path d="m230.054688 407.761719c.636718.160156 1.289062.238281 1.945312.238281 3.667969-.003906 6.859375-2.5 7.753906-6.054688l8-32c.714844-2.78125-.113281-5.734374-2.171875-7.734374-2.058593-2.003907-5.03125-2.75-7.789062-1.953126-2.761719.792969-4.882813 3.007813-5.5625 5.796876l-8 32c-1.070313 4.289062 1.535156 8.636718 5.824219 9.707031zm0 0"/><path d="m356.800781 457.214844 17.121094-51.292969 51.300781-17.121094-111.152344-42.730469zm4.457031-63.941406-5.539062 16.582031-13.816406-35.925781 35.921875 13.8125zm0 0"/><path d="m448 64.800781v-40.800781c0-13.253906-10.746094-24-24-24h-368c-13.253906 0-24 10.746094-24 24v40.800781c-18.613281 3.828125-31.9765625 20.199219-32 39.199219v68c.0195312 20.988281 12.636719 39.910156 32 48v236c0 13.253906 10.746094 24 24 24h368c13.253906 0 24-10.746094 24-24v-236c19.363281-8.089844 31.980469-27.011719 32-48v-68c-.023438-19-13.386719-35.371094-32-39.199219zm-400-40.800781c0-4.417969 3.582031-8 8-8h368c4.417969 0 8 3.582031 8 8v40h-384zm328 136h-64v16h63.199219c-4.089844 20.140625-22.773438 33.902344-43.21875 31.835938-20.445313-2.0625-36-19.285157-35.980469-39.835938v-88h80zm-96 0h-16v16h15.199219c-3.785157 18.644531-20.175781 32.039062-39.199219 32.039062s-35.414062-13.394531-39.199219-32.039062h15.199219v-16h-16v-80h80zm-176 0v-80h80v80h-16v16h15.199219c-3.785157 18.644531-20.175781 32.039062-39.199219 32.039062s-35.414062-13.394531-39.199219-32.039062h47.199219v-16zm-87.59375 16h55.59375v-16h-56v-56c0-13.253906 10.746094-24 24-24h48v92c.035156 19.078125-14.851562 34.851562-33.902344 35.917969-19.046875 1.0625-35.601562-12.957031-37.691406-31.917969zm415.59375 280c0 4.417969-3.582031 8-8 8h-368c-4.417969 0-8-3.582031-8-8v-232.199219c1.328125.09375 2.648438.199219 4 .199219 18.492188-.023438 35.582031-9.871094 44.878906-25.855469 10.417969 16.359375 28.574219 26.140625 47.964844 25.847657 19.390625-.296876 37.242188-10.628907 47.15625-27.296876 10.0625 16.929688 28.304688 27.308594 48 27.308594s37.9375-10.378906 48-27.308594c9.914062 16.671876 27.765625 27.003907 47.15625 27.300782 19.394531.292968 37.550781-9.496094 47.964844-25.859375 9.292968 15.988281 26.382812 25.835937 44.878906 25.863281 1.351562 0 2.671875-.105469 4-.199219zm-4-248c-19.875-.023438-35.976562-16.125-36-36v-92h48c13.253906 0 24 10.746094 24 24v56h-56v16h55.59375c-1.996094 18.167969-17.316406 31.941406-35.59375 32zm0 0"/><path d="m232 160h16v16h-16zm0 0"/></svg>