<svg id="Layer_1" enable-background="new 0 0 512 512" height="512" viewBox="0 0 512 512" width="512" xmlns="http://www.w3.org/2000/svg"><path d="m512 133.113-249.913-133.113h-12.174l-249.913 133.113v24.986l83.032 44.585-83.032 44.38v25.013l76.652 40.828-76.652 40.97v25.012l249.913 133.113h12.174l249.913-133.113v-25.012l-76.653-40.97 76.653-40.828v-25.013l-83.032-44.379 83.032-44.586zm-61.533 233.228-194.467 103.581-194.467-103.581 57.622-30.798 130.758 69.646h12.174l130.758-69.646zm.001-106.81-194.468 103.58-194.468-103.58 63.83-34.116 124.515 66.861h12.246l124.515-66.861zm-194.468-9.37-194.542-104.462 194.542-103.621 194.542 103.621zm-6.087-136.161h12.174l81.798 43.568-42.371 22.752-45.514-24.242-45.514 24.242-42.371-22.752z"/></svg>