<svg clip-rule="evenodd" fill-rule="evenodd" stroke-linejoin="round" stroke-miterlimit="2" viewBox="0 0 356 356" xmlns="http://www.w3.org/2000/svg" xmlns:serif="http://www.serif.com/"><g id="Exp-2.-O"><g><path d="m270.896 208.281c12.607 6.537 24.275 12.587 33.385 17.311 1.842.955 2.999 2.857 2.999 4.932s-1.157 3.976-2.999 4.932c-32.09 16.639-95.906 49.729-120.747 62.609-4.811 2.495-10.533 2.495-15.344 0-24.841-12.88-88.657-45.97-120.747-62.609-1.842-.956-2.999-2.857-2.999-4.932s1.157-3.977 2.999-4.932c9.488-4.92 21.749-11.278 34.956-18.126 2.722-1.411 3.786-4.767 2.375-7.489s-4.767-3.786-7.489-2.375c-13.208 6.848-25.469 13.206-34.957 18.126-5.526 2.865-8.995 8.571-8.995 14.796 0 6.224 3.469 11.93 8.995 14.796 32.09 16.639 95.907 49.729 120.747 62.609 8.018 4.158 17.556 4.158 25.574 0 24.84-12.88 88.657-45.97 120.747-62.609 5.526-2.866 8.995-8.572 8.995-14.796 0-6.225-3.469-11.931-8.995-14.796-9.11-4.724-20.778-10.774-33.385-17.311-2.722-1.412-6.078-.348-7.49 2.374-1.411 2.722-.347 6.078 2.375 7.49z"/><path d="m271.825 152.554c12.734 6.603 24.525 12.717 33.715 17.482 1.842.955 2.998 2.857 2.998 4.932s-1.156 3.977-2.998 4.932c-32.09 16.639-95.907 49.729-120.747 62.61-4.811 2.494-10.534 2.494-15.344 0-24.841-12.881-88.657-45.971-120.748-62.61-1.842-.955-2.998-2.857-2.998-4.932s1.156-3.977 2.998-4.932c9.242-4.792 21.114-10.948 33.928-17.592 2.722-1.412 3.786-4.767 2.375-7.489s-4.767-3.787-7.489-2.375c-12.815 6.645-24.687 12.8-33.928 17.592-5.526 2.865-8.995 8.571-8.995 14.796s3.469 11.931 8.995 14.796c32.09 16.639 95.907 49.729 120.747 62.61 8.018 4.157 17.556 4.157 25.573 0 24.841-12.881 88.658-45.971 120.748-62.61 5.526-2.865 8.995-8.571 8.995-14.796s-3.469-11.931-8.995-14.796c-9.19-4.765-20.982-10.879-33.715-17.482-2.722-1.411-6.078-.347-7.489 2.375-1.412 2.722-.348 6.078 2.374 7.489z"/><path d="m164.334 42.007-120.747 62.61c-5.526 2.865-8.995 8.571-8.995 14.795 0 6.225 3.469 11.931 8.995 14.796 32.09 16.64 95.907 49.73 120.747 62.61 8.018 4.157 17.556 4.157 25.573 0 24.841-12.88 88.658-45.97 120.748-62.61 5.526-2.865 8.995-8.571 8.995-14.795 0-6.225-3.469-11.931-8.995-14.796-32.09-16.64-95.907-49.73-120.748-62.61-8.017-4.157-17.555-4.157-25.573 0zm5.115 9.864c4.81-2.495 10.533-2.495 15.344 0 24.84 12.88 88.657 45.97 120.747 62.61 1.842.955 2.998 2.857 2.998 4.932 0 2.074-1.156 3.976-2.998 4.931-32.09 16.64-95.907 49.73-120.747 62.61-4.811 2.495-10.534 2.495-15.344 0-24.841-12.88-88.657-45.97-120.748-62.61-1.842-.955-2.998-2.857-2.998-4.932 0-2.074 1.156-3.976 2.998-4.931z"/></g></g></svg>