<svg id="Layer_1" enable-background="new 0 0 32 32" viewBox="0 0 32 32" xmlns="http://www.w3.org/2000/svg"><g><path d="m10.12 13.87c1.14 0 2.23-.41 3.1-1.16.96-.83 1.53-1.98 1.62-3.25.18-2.61-1.79-4.88-4.4-5.07-2.6-.19-4.88 1.79-5.07 4.4-.09 1.26.32 2.49 1.15 3.44.83.96 1.98 1.53 3.25 1.62.12.02.23.02.35.02zm-3.74-5.01c.14-1.97 1.79-3.48 3.73-3.48.09 0 .18 0 .27.01 2.06.15 3.62 1.94 3.47 4-.07 1-.53 1.91-1.28 2.56-.76.66-1.72.97-2.72.91-1-.07-1.91-.53-2.56-1.28-.66-.76-.99-1.72-.91-2.72z"/><path d="m10.61 11.91v-.18c.66-.2 1.14-.8 1.14-1.52 0-.43-.17-.83-.47-1.13s-.7-.46-1.13-.46h-.1c-.16 0-.31-.06-.42-.18-.1-.11-.16-.26-.16-.42 0-.33.27-.6.59-.6h.04.01s0 0 .01 0h1.14c.28 0 .5-.22.5-.5s-.22-.5-.5-.5h-.64v-.08c0-.28-.22-.5-.5-.5s-.5.22-.5.5v.16c-.67.2-1.15.8-1.15 1.52 0 .43.17.83.46 1.12.3.3.7.47 1.13.47h.1c.16 0 .31.06.42.17s.17.26.17.42c0 .33-.27.59-.59.59h-1.19c-.28 0-.5.22-.5.5s.22.5.5.5h.64v.1c0 .28.22.5.5.5s.5-.2.5-.48z"/><path d="m28.94 26.62h-1.99v-15.67c0-.28-.22-.5-.5-.5h-3.11c-.28 0-.5.22-.5.5v15.67h-1.49v-10.7c0-.28-.22-.5-.5-.5h-3.11c-.28 0-.5.22-.5.5v10.7h-1.49v-5.72c0-.28-.22-.5-.5-.5h-3.11c-.28 0-.5.22-.5.5v5.72h-1.49v-3.23c0-.28-.22-.5-.5-.5h-3.1c-.28 0-.5.22-.5.5v3.23h-1.99c-.28 0-.5.22-.5.5s.22.5.5.5h2.49 3.11 2.49 3.11 2.49 3.11 2.49 3.11 2.49c.28 0 .5-.22.5-.5s-.23-.5-.51-.5zm-19.78 0h-2.11v-2.73h2.11zm5.6 0h-2.11v-5.22h2.11zm5.59 0h-2.11v-10.2h2.11zm5.6 0h-2.11v-15.17h2.11z"/><path d="m2.59 22.08c.08.2.27.33.47.33.06 0 .12-.01.17-.03 8.58-3.15 15.31-8.52 20.06-15.91l.27 1.72c.04.25.25.42.49.42.03 0 .05 0 .08-.01.27-.04.46-.3.42-.57l-.47-3c-.01-.08-.05-.15-.09-.21 0-.01 0-.01-.01-.02s-.02-.01-.03-.02c-.05-.06-.11-.1-.18-.13-.01-.01-.03-.01-.04-.02-.07-.02-.14-.03-.22-.02-.01 0-.02.01-.04.01-.01 0-.02 0-.02 0l-3.53 1c-.27.08-.42.35-.34.62s.35.42.62.34l2.28-.65c-4.63 7.21-11.22 12.41-19.59 15.49-.26.12-.39.4-.3.66z"/></g></svg>