<?xml version="1.0" encoding="UTF-8"?>
<svg xmlns="http://www.w3.org/2000/svg" viewBox="0 0 64 64" width="512" height="512"><g id="research-blockchain-network-data-currency"><path d="M47,25A15,15,0,1,0,28,39.44V42H27a1,1,0,0,0-1,1V56a6,6,0,0,0,12,0V43a1,1,0,0,0-1-1H36V39.44A15.013,15.013,0,0,0,47,25ZM36,56a4,4,0,0,1-8,0V44h8ZM30,42V39.85a13.408,13.408,0,0,0,4,0V42Zm2-4A13,13,0,1,1,45,25,13.012,13.012,0,0,1,32,38Z"/><rect x="31" y="46" width="2" height="12"/><path d="M15.71,52.29l-4-4A1.033,1.033,0,0,0,11,48H9V30h6V28H8a1,1,0,0,0-1,1V48H3a1,1,0,0,0-1,1v8a1.033,1.033,0,0,0,.29.71l4,4A1,1,0,0,0,7,62h8a1,1,0,0,0,1-1V53A1,1,0,0,0,15.71,52.29ZM6,58.59l-2-2V51.41l2,2ZM5.41,50h5.18l2,2H7.41ZM14,60H8V54h6Z"/><path d="M61.71,52.29l-4-4A1.033,1.033,0,0,0,57,48H55V29a1,1,0,0,0-1-1H49v2h4V48H49a1,1,0,0,0-1,1v8a1.033,1.033,0,0,0,.29.71l4,4A1,1,0,0,0,53,62h8a1,1,0,0,0,1-1V53A1,1,0,0,0,61.71,52.29ZM52,58.59l-2-2V51.41l2,2ZM51.41,50h5.18l2,2H53.41ZM60,60H54V54h6Z"/><path d="M61.71,6.29l-4-4A1.033,1.033,0,0,0,57,2H49a1,1,0,0,0-1,1v8a1.033,1.033,0,0,0,.29.71l4,4A1,1,0,0,0,53,16h3v4H49v2h8a1,1,0,0,0,1-1V16h3a1,1,0,0,0,1-1V7A1,1,0,0,0,61.71,6.29ZM52,12.59l-2-2V5.41l2,2ZM51.41,4h5.18l2,2H53.41ZM60,14H54V8h6Z"/><path d="M15.71,6.29l-4-4A1.033,1.033,0,0,0,11,2H3A1,1,0,0,0,2,3v8a1.033,1.033,0,0,0,.29.71l4,4A1,1,0,0,0,7,16h3v5a1,1,0,0,0,1,1h4V20H12V16h3a1,1,0,0,0,1-1V7A1,1,0,0,0,15.71,6.29ZM6,12.59l-2-2V5.41l2,2ZM5.41,4h5.18l2,2H7.41ZM14,14H8V8h6Z"/><path d="M32,14A11,11,0,1,0,43,25,11.013,11.013,0,0,0,32,14Zm0,20a9,9,0,1,1,9-9A9.01,9.01,0,0,1,32,34Z"/></g></svg>
